<?xml version="1.0" encoding="iso-8859-1"?>
<!-- Generator: Adobe Illustrator 19.0.0, SVG Export Plug-In . SVG Version: 6.00 Build 0)  -->
<svg xmlns="http://www.w3.org/2000/svg" xmlns:xlink="http://www.w3.org/1999/xlink" version="1.1" id="Layer_1" x="0px" y="0px" viewBox="0 0 512.001 512.001" style="enable-background:new 0 0 512.001 512.001;" xml:space="preserve" width="512px" height="512px">
<g>
	<g>
		<path d="M462.494,134.407c-16.763-38.901-35.082-70.136-54.447-92.834c-23.514-27.559-47.941-41.532-72.606-41.532    c-24.665,0-49.093,13.973-72.606,41.533c-7.446,8.728-14.735,18.728-21.842,29.929C201.452,21.924,162.523-1.484,127.864,3.695    C103.469,7.34,81.374,24.769,62.192,55.501c-15.799,25.311-29.301,58.908-40.132,99.86C3.229,226.57-4.692,311.323,2.799,361.464    C15.87,448.946,91.39,511.949,177.307,511.949c8.646,0,17.399-0.637,26.202-1.954c18.555-2.772,36.342-8.395,52.96-16.714    c23.777,11.942,50.601,18.679,78.973,18.679c97.355,0,176.559-79.204,176.559-176.559    C512,284.703,491.642,202.051,462.494,134.407z M200.422,489.329c-84.889,12.688-164.275-46.062-176.958-130.952    c-6.006-40.201-1.478-121.009,18.797-197.673c21.54-81.445,53.867-131.14,88.691-136.344c27.821-4.156,62.705,19.41,98.629,66.472    c-7.297,13.226-14.375,27.755-21.193,43.576c-29.148,67.644-49.505,150.295-49.505,200.994    c0,59.867,29.958,112.861,75.662,144.803C223.611,484.509,212.194,487.57,200.422,489.329z M335.441,491.065    c-85.834,0-155.664-69.831-155.664-155.664c0-40.647,16.419-119.9,47.799-192.726c7.518-17.447,15.341-33.211,23.352-47.171    c0.087-0.141,0.167-0.284,0.247-0.429c27.442-47.677,57.077-74.141,84.267-74.141c35.211,0,74.525,44.373,107.865,121.741    c31.38,72.826,47.799,152.077,47.799,192.726C491.105,421.234,421.275,491.065,335.441,491.065z" fill="#FFFFFF"/>
	</g>
</g>
<g>
	<g>
		<path d="M407.65,250.801c-39.818-39.818-104.605-39.817-144.423,0c-15.846,15.846-25.851,35.926-28.932,58.068    c-2.978,21.409,1,43.628,11.204,62.564c2.737,5.079,9.071,6.979,14.153,4.242c5.079-2.737,6.979-9.073,4.242-14.153    c-16.871-31.313-11.07-70.767,14.109-95.945c31.671-31.671,83.202-31.671,114.873,0c15.343,15.343,23.792,35.74,23.792,57.437    c0,21.697-8.449,42.094-23.792,57.437c-25.179,25.179-64.633,30.98-95.946,14.108c-5.079-2.738-11.416-0.838-14.153,4.242    c-2.737,5.079-0.838,11.416,4.242,14.153c14.837,7.995,31.687,12.168,48.586,12.168c4.669,0,9.345-0.319,13.978-0.965    c22.141-3.081,42.221-13.085,58.067-28.932c19.289-19.289,29.912-44.934,29.912-72.211    C437.561,295.734,426.938,270.09,407.65,250.801z" fill="#FFFFFF"/>
	</g>
</g>
<g>
	<g>
		<path d="M277.947,380.441c-4.097-4.063-10.741-4.005-14.804,0.093c-4.062,4.097-4.034,10.712,0.064,14.774    c2.037,2.019,4.697,3.028,7.355,3.028c2.689,0,5.376-1.031,7.419-3.091l0.06-0.06    C282.103,391.087,282.044,384.503,277.947,380.441z" fill="#FFFFFF"/>
	</g>
</g>
<g>
	<g>
		<path d="M402.152,291.85c-12.063-25.789-38.249-42.453-66.711-42.453c-5.77,0-10.447,4.677-10.447,10.447    c0,5.77,4.677,10.447,10.447,10.447c20.386,0,39.143,11.938,47.786,30.413c1.775,3.795,5.539,6.023,9.469,6.023    c1.482,0,2.989-0.318,4.42-0.987C402.342,303.295,404.597,297.076,402.152,291.85z" fill="#FFFFFF"/>
	</g>
</g>
<g>
	<g>
		<path d="M398.61,312.508c-5.77,0-10.447,4.677-10.447,10.447v0.058c0,5.77,4.677,10.418,10.447,10.418    c5.77,0,10.447-4.706,10.447-10.477C409.058,317.186,404.38,312.508,398.61,312.508z" fill="#FFFFFF"/>
	</g>
</g>
<g>
	<g>
		<path d="M429.874,148.463C399.865,78.822,363.68,35.56,335.441,35.56c-28.239,0-64.424,43.261-94.433,112.902    c-30.271,70.252-46.605,148.748-46.605,186.938c0,77.768,63.27,141.038,141.038,141.038S476.479,413.17,476.479,335.4    C476.479,297.211,460.146,218.714,429.874,148.463z M335.441,455.545c-66.247,0-120.143-53.896-120.143-120.143    c0-36.101,15.737-110.989,44.9-178.669c31.479-73.052,62.859-100.277,75.243-100.277c12.384,0,43.765,27.223,75.243,100.277    c29.164,67.68,44.9,142.568,44.9,178.669C455.584,401.649,401.688,455.545,335.441,455.545z" fill="#FFFFFF"/>
	</g>
</g>
<g>
</g>
<g>
</g>
<g>
</g>
<g>
</g>
<g>
</g>
<g>
</g>
<g>
</g>
<g>
</g>
<g>
</g>
<g>
</g>
<g>
</g>
<g>
</g>
<g>
</g>
<g>
</g>
<g>
</g>
</svg>
